<svg xmlns="http://www.w3.org/2000/svg" xmlns:xlink="http://www.w3.org/1999/xlink" xmlns:sketch="http://www.bohemiancoding.com/sketch/ns" viewBox="0 0 100 125" version="1.1" x="0px" y="0px">
  <title>Termite</title>
  <desc>Created with Sketch.</desc>
  <g stroke="none" stroke-width="1" fill="none" fill-rule="evenodd" sketch:type="MSPage">
    <g sketch:type="MSArtboardGroup" fill="#000000">
      <path d="M41.6492652,22.8420483 C41.5086592,23.1875799 41.4027478,23.5467702 41.3366038,23.9153865 L38.6276935,39.0119598 C37.8643225,43.2661751 40.7673536,46.714898 45.1090694,46.714898 L45.6670317,46.714898 L45.6670317,46.714898 C45.2575101,47.0241328 45.041025,47.5444427 45.1382369,48.1338615 L45.3158975,49.211059 C45.4230487,49.8607417 45.765751,50.4542088 46.2446351,50.9071562 C46.0936137,51.3805465 45.9477508,51.9394581 45.7978025,52.5992816 C45.250915,52.2289374 44.3643373,52.2289374 44.3643373,52.2289374 C44.3643373,52.2289374 41.1211791,48.3217604 38.6821252,46.5658699 C38.0722998,46.1268528 37.4072648,46.0478188 36.9096637,46.0827055 L36.9096637,46.0827055 C36.9300345,45.6877369 36.9680775,45.0295452 37.0372744,44.0323928 C37.1656736,42.1821138 37.1738272,37.8251351 36.5886786,35.6868192 C36.2521331,34.4569765 35.8524667,34.0449397 35.4686037,34.0888808 C35.3484921,33.1149424 35.0317001,31.6376289 34.1961683,30.619864 C32.8503812,28.980555 31.2055304,28.0863864 31.2055304,28.0863864 C31.2055304,28.0863864 31.504594,29.1295831 32.4017855,29.8747235 C32.7777464,30.1869687 33.0135188,31.3906373 33.5980407,32.4082011 C34.0359317,33.1705028 34.5681789,33.892223 34.9649545,34.39464 L34.9649545,34.39464 C34.535952,34.8586459 34.182801,35.7534305 34.0466364,36.4319597 C33.7475726,37.9222406 33.8971045,42.6911393 34.644764,44.3304485 C35.075845,45.2756316 35.7554762,45.8740169 36.2537348,46.2112993 C36.1929695,46.2338675 36.1536485,46.2542939 36.1400829,46.2678137 C35.8410191,46.5658699 35.2428916,47.9071227 36.4391467,49.2483755 C37.6354019,50.5896282 43.467146,52.9740781 44.0652735,53.2721341 C44.2886788,53.4947865 44.8458585,54.1332514 45.4874779,54.069303 L45.4874779,54.069303 C45.3955532,54.5313763 45.3002144,55.0303537 45.1996953,55.5691759 C44.7252251,55.4373408 43.6166778,55.8056117 43.6166778,55.8056117 C43.6166778,55.8056117 41.9718272,56.1036678 37.784934,55.8056116 C34.1831958,55.5492114 33.3478537,57.1676226 33.851047,58.0044851 C33.2202784,58.1429979 32.2522536,58.7861735 32.2522536,58.7861735 C32.2522536,58.7861735 29.7630707,60.8930942 27.7662968,62.95896 C26.0076055,64.778505 24.5561007,66.9281692 24.6261268,68.3239719 C24.6344053,68.4889836 24.6555167,68.6279592 24.6881415,68.743124 L24.6881415,68.743124 C23.6205903,69.0730491 20.6384509,69.9632804 19.5420423,69.9632804 C18.1962552,69.9632804 17,70.857449 17,70.857449 C17,70.857449 21.6354888,71.1555052 23.4298716,70.4103647 C24.4049667,70.005444 24.8060234,69.5125072 24.9689784,69.146786 C26.0347386,69.7048942 29.2280708,65.6517783 29.8597434,64.8963252 C30.6074028,64.0021567 32.7008493,61.7667354 34.0466364,59.2332578 C34.2434819,58.8626912 34.3443534,58.5909636 34.3731155,58.397089 L34.3731155,58.397089 C36.4140158,59.0098407 38.5325934,57.7429768 38.5325934,57.7429768 C38.5325934,57.7429768 42.2708907,56.5507521 43.4671459,56.5507521 C44.1758317,56.5507521 44.7270775,56.4984489 45.058703,56.3318717 C45.0183022,56.5521314 44.9770254,56.7784179 44.9347738,57.0108959 C44.8296757,57.5891698 44.7107319,58.129215 44.5803538,58.6354207 C44.102212,58.4892985 43.7662097,59.3822859 43.7662097,59.3822859 L40.3269761,61.4686792 C40.3269761,61.4686792 35.2428915,64.3002128 35.990551,66.3866061 C36.0622619,66.5867198 36.1532312,66.7429624 36.2591051,66.8619085 C35.8671834,67.181726 35.310933,67.8150322 34.644764,69.0691119 C33.2989769,71.6025895 31.654126,76.3714884 31.0559984,78.4578817 C30.4898929,80.4325752 30.4595852,82.5407669 30.7115189,83.1398936 L30.7115189,83.1398936 L25.6728501,88.2937358 C25.6728501,88.2937358 30.0092751,86.0583144 30.9064665,85.0151178 C31.405081,84.4353608 31.4880377,83.7175181 31.4633392,83.1941349 C31.8766143,82.8734718 32.41491,82.1092382 32.9999131,80.6933031 C36.0865086,73.4760739 36.722618,68.7950064 36.8537123,67.1721166 L36.8537123,67.1721166 C37.9687193,67.311182 39.5793166,65.7904939 39.5793166,65.7904939 C40.3206078,65.1994587 41.9711455,62.9813492 44.1583191,60.0539983 C42.2743511,65.5891894 38.981189,66.5261011 38.981189,71.4244089 C38.981189,84.4448483 43.9113223,95 50.3345368,95 C56.7577513,95 61.4109737,84.4448483 61.4109737,71.4244089 C61.4109737,66.4289844 57.7465566,65.7256003 56.2182002,59.7204854 C56.3086238,59.7968175 56.4141392,59.8817292 56.5353839,59.9783982 C58.7506184,62.9431191 60.4232134,65.1943813 61.1708728,65.7904939 C61.1708728,65.7904939 62.7814701,67.311182 63.896477,67.1721166 C64.0275714,68.7950064 64.6636807,73.4760739 67.7502763,80.6933031 C68.3352794,82.1092382 68.873575,82.8734718 69.2868502,83.1941349 C69.2621517,83.7175181 69.3451084,84.4353608 69.8437228,85.0151178 C70.7409142,86.0583144 75.0773393,88.2937358 75.0773393,88.2937358 L70.0386705,83.1398936 L70.0386705,83.1398936 C70.2906042,82.5407669 70.2602964,80.4325752 69.694191,78.4578817 C69.0960634,76.3714884 67.4512125,71.6025895 66.1054254,69.0691119 C65.4392564,67.8150322 64.883006,67.181726 64.4910843,66.8619085 C64.5969581,66.7429624 64.6879275,66.5867198 64.7596383,66.3866061 C65.5072978,64.3002128 60.4232133,61.4686792 60.4232133,61.4686792 L56.9839796,59.3822859 C56.9839796,59.3822859 56.5647942,58.2682241 55.9965642,58.7324092 C55.8920767,58.1984238 55.8036249,57.6262901 55.7342998,57.0108959 C55.6940152,56.6532922 55.654022,56.3103593 55.614105,55.9814956 C55.7535724,56.4318258 56.4642206,56.5507521 57.5328541,56.5507521 C58.7291093,56.5507521 62.4674066,57.7429768 62.4674066,57.7429768 C62.4674066,57.7429768 64.5859842,59.0098407 66.6268845,58.397089 L66.6268845,58.397089 C66.6556466,58.5909636 66.7565181,58.8626912 66.9533636,59.2332578 C68.2991507,61.7667354 70.3925972,64.0021567 71.1402566,64.8963252 C71.7719292,65.6517783 74.9652614,69.7048942 76.0310216,69.146786 C76.1939766,69.5125072 76.5950333,70.005444 77.5701284,70.4103647 C79.3645112,71.1555052 84,70.857449 84,70.857449 C84,70.857449 82.8037448,69.9632804 81.4579577,69.9632804 C80.3615491,69.9632804 77.3794097,69.0730491 76.3118585,68.743124 L76.3118585,68.743124 C76.3444833,68.6279592 76.3655947,68.4889836 76.3738732,68.3239719 C76.4438993,66.9281692 74.9923945,64.778505 73.2337032,62.95896 C71.2369293,60.8930942 68.7477464,58.7861735 68.7477464,58.7861735 C68.7477464,58.7861735 67.7797216,58.1429979 67.148953,58.0044851 C67.6521463,57.1676226 66.8168042,55.5492114 63.215066,55.8056116 C59.0281728,56.1036678 57.3833222,55.8056117 57.3833222,55.8056117 C57.3833222,55.8056117 55.6349144,55.2247726 55.5898268,55.7831438 C55.5063679,55.1070586 55.4230511,54.4920101 55.3379053,53.932489 C56.1397078,54.4116431 56.892954,53.540299 57.1620256,53.2721341 C57.7601532,52.9740781 63.5918973,50.5896282 64.7881524,49.2483755 C65.9844076,47.9071227 65.38628,46.5658699 65.0872162,46.2678137 C65.0736507,46.2542939 65.0343296,46.2338675 64.9735643,46.2112993 C65.471823,45.8740169 66.1514542,45.2756316 66.5825352,44.3304485 C67.3301947,42.6911393 67.4797266,37.9222406 67.1806628,36.4319597 C67.0444982,35.7534305 66.6913471,34.8586459 66.2623446,34.39464 L66.2623446,34.39464 C66.6591203,33.892223 67.1913675,33.1705028 67.6292584,32.4082011 C68.2137803,31.3906373 68.4495528,30.1869687 68.8255137,29.8747235 C69.7227051,29.1295831 70.0217688,28.0863864 70.0217688,28.0863864 C70.0217688,28.0863864 68.3769179,28.980555 67.0311308,30.619864 C66.195599,31.6376289 65.8788071,33.1149424 65.7586954,34.0888808 C65.3748324,34.0449397 64.9751661,34.4569765 64.6386205,35.6868192 C64.053472,37.8251351 64.0616255,42.1821138 64.1900247,44.0323928 C64.2592217,45.0295452 64.2972646,45.6877369 64.3176354,46.0827055 L64.3176354,46.0827055 C63.8200343,46.0478188 63.1549993,46.1268528 62.545174,46.5658699 C60.1061201,48.3217604 56.8629618,52.2289374 56.8629618,52.2289374 C56.8629618,52.2289374 55.6009293,52.2289373 55.1595126,52.8579166 C55.0168507,52.075284 54.8659383,51.4268762 54.6985412,50.8896791 L54.6985412,50.8896791 C55.1678121,50.43911 55.5032846,49.8526305 55.609098,49.211059 L55.7867585,48.1338615 C55.8840011,47.5442567 55.6666543,47.0240625 55.2570898,46.714898 L56.4275047,46.714898 C60.7704409,46.714898 63.6724473,43.267266 62.9088803,39.0119598 L60.1999695,23.9153865 C60.130619,23.5289005 60.0176437,23.1528234 59.866864,22.7920139 L59.866864,22.7920139 L61.04915,22.1972342 C61.04915,22.1972342 60.9433515,21.8682845 60.6991452,21.5567315 L60.6991452,21.5567315 L62.0422166,20.9386414 C62.0422166,20.9386414 61.9887333,20.7498947 61.8626259,20.5200079 L63.1057415,20.1223628 C63.1057415,20.1223628 63.0669998,19.8717659 62.9350067,19.5825407 L62.9350067,19.5825407 L64.3590355,19.2075945 C64.3590355,19.2075945 64.3385773,19.0052532 64.2505488,18.7505872 L65.5187905,18.2957348 C65.5187905,18.2957348 65.4653733,18.0156542 65.3024541,17.7103147 L65.3024541,17.7103147 L66.6872349,16.8882566 C66.6872349,16.8882566 66.6128062,16.7025928 66.4603179,16.4843791 L67.6604998,15.6224421 C67.6604998,15.6224421 67.5658013,15.4354712 67.3869055,15.2253792 L67.3869055,15.2253792 L68.5482287,14.0770636 C68.5482287,14.0770636 68.3810332,13.8459449 68.1039573,13.6378075 L69.2188762,12.369679 C69.2188762,12.369679 69.0611905,12.1810067 68.8058046,12.0032412 L68.8058046,12.0032412 L69.4102542,10.8346284 C69.4102542,10.8346284 69.3321706,10.7681655 69.2044872,10.6915223 L69.7912109,9.55717965 C69.7912109,9.55717965 69.6913952,9.47221894 69.5329315,9.38364273 L69.5329315,9.38364273 L69.947879,7.86736293 C69.947879,7.86736293 69.7574226,7.76427452 69.4979469,7.70876617 L69.7356758,6.64938976 C69.7356758,6.64938976 69.4806289,6.49145742 69.1864738,6.47003486 L69.1864738,6.47003486 L69.4755709,5.18174955 C69.4755709,5.18174955 68.8569841,4.798703 68.4354564,5.14477856 C68.5155258,5.51956359 68.7382582,6.10261749 68.8999816,6.50078391 C68.8291757,6.52358041 68.7600616,6.55946386 68.6955613,6.61241877 C68.7580094,6.9047228 68.9072369,7.32371309 69.0466188,7.68287066 L69.0466188,7.68287066 C68.8962052,7.70145057 68.7445637,7.7523291 68.6072301,7.85478179 C68.6865969,8.22627789 68.8975821,8.77322366 69.080359,9.20953365 C68.8919011,9.17112957 68.6844878,9.17441884 68.4824875,9.26755178 C68.4824875,9.59012875 68.5489112,10.0561472 68.622602,10.4738951 L68.622602,10.4738951 C68.4553993,10.4510771 68.276436,10.4643598 68.1015308,10.5450005 C68.1015308,10.863197 68.1661627,11.3209658 68.2386474,11.7342993 C68.0751047,11.6929919 67.8984809,11.6803719 67.7147532,11.7163259 C67.6231833,12.1449414 67.5976479,12.8265111 67.593726,13.3684359 L67.593726,13.3684359 C67.4392619,13.3205536 67.2712151,13.2988126 67.0935777,13.3209123 C66.9842884,13.7001146 66.9140134,14.2875409 66.8705047,14.7951913 C66.7152347,14.7121887 66.5387737,14.6555773 66.3426496,14.6491979 C66.1872601,14.9807402 66.0368534,15.4943597 65.9178934,15.9616992 L65.9178934,15.9616992 C65.7834005,15.8827762 65.6307828,15.8249614 65.4596562,15.8044408 C65.2601275,16.1482802 65.0476577,16.706289 64.8815254,17.190567 C64.7778515,17.1097128 64.6585588,17.0427201 64.5216228,16.9987876 C64.3000777,17.2523524 64.0400231,17.6547048 63.8101786,18.0414103 L63.8101786,18.0414103 C63.7163607,17.9561183 63.6068992,17.8826799 63.4792755,17.8291149 C63.1893499,18.1076715 62.8262089,18.5926146 62.5307353,19.015568 C62.4248317,18.9224722 62.3004562,18.8440072 62.154675,18.7915817 C61.9031365,19.0599544 61.5994623,19.5041125 61.3406461,19.9130562 C61.2230049,19.8319607 61.088392,19.7679209 60.9352303,19.7330972 C60.6884224,20.0710748 60.4024528,20.6433828 60.1812385,21.1236452 C60.0949586,21.0822211 60.0015033,21.0501533 59.9005506,21.0308616 C59.7450042,21.2602979 59.5758895,21.5931042 59.4200703,21.9334055 C58.7053697,20.7978488 57.6053085,19.887321 56.3520813,19.3956552 C56.3841425,19.0890492 56.4058456,18.745539 56.4157974,18.361748 C56.5690115,12.453069 51.1828903,12.3109426 51.1828903,12.3109426 C51.1828903,12.3109426 51.3733691,12.4596875 51.7217518,12.6144207 C53.5709549,13.4357386 52.9876189,17.4571625 52.6894631,18.9956728 L48.8463041,18.9956728 L48.8463041,18.9956728 C48.6390784,17.5045654 48.2603275,13.4438996 50.1279051,12.6144207 C50.4762878,12.4596875 50.6667666,12.3109426 50.6667666,12.3109426 C50.6667666,12.3109426 45.2806454,12.453069 45.4338595,18.361748 C45.4426611,18.7011785 45.4597237,19.0089718 45.484179,19.2874768 C44.2600789,19.6949396 43.1596176,20.5022221 42.388536,21.5376492 C42.3458547,21.4882394 42.304149,21.442347 42.2638119,21.4007887 C42.1677599,21.4372287 42.0813213,21.4849552 42.0035821,21.5406563 C41.7019064,21.1059087 41.3203941,20.5917013 41.0183471,20.3014986 C40.8735902,20.3622545 40.7521995,20.4485779 40.6504994,20.548766 L40.6504994,20.548766 C40.3242407,20.1907498 39.9476592,19.8058042 39.6531019,19.5849662 C39.5186855,19.6617814 39.4098944,19.7605423 39.321848,19.8705204 C38.9570435,19.5050406 38.5147804,19.0902035 38.1806418,18.8659683 C38.0643058,18.9407687 37.9693248,19.0320027 37.8918186,19.1322075 L37.8918186,19.1322075 C37.5979726,18.7910865 37.2716446,18.4397755 37.0092095,18.2283385 C36.8820216,18.2952615 36.7762338,18.3818463 36.6882468,18.4793835 C36.4401154,18.0311649 36.1334818,17.5183413 35.8769727,17.2141974 C35.7120275,17.2639712 35.571819,17.347275 35.4531441,17.4482349 L35.4531441,17.4482349 C35.2544247,17.0085476 35.0166588,16.5287164 34.8057646,16.2290572 C34.6137335,16.2692234 34.4498339,16.3554613 34.3114097,16.4640284 C34.1799596,15.9716072 34.0082263,15.4052463 33.8344136,15.0506866 C33.6556178,15.0596125 33.4939185,15.110056 33.3501582,15.1838972 L33.3501582,15.1838972 C33.2517115,14.650883 33.1076069,13.9840795 32.9426201,13.5777959 C32.7554084,13.5741301 32.5836705,13.6170731 32.4298219,13.6860077 C32.4290646,13.2664307 32.4128184,12.8044502 32.3572822,12.4910878 C32.1709597,12.4418901 31.9923969,12.4597281 31.8317169,12.5110864 L31.8317169,12.5110864 C31.8313769,12.0869537 31.8154553,11.6165394 31.7591546,11.2988631 C31.5439683,11.242044 31.339132,11.2746388 31.16024,11.3450187 C31.2640891,10.8837594 31.3764083,10.3086718 31.3897306,9.92910759 C31.2366019,9.85193807 31.0783841,9.8280311 30.9270128,9.83571992 L30.9270128,9.83571992 C31.001592,9.4579382 31.0754242,9.01953177 31.0859066,8.72087955 C31.0131438,8.67987263 30.9388167,8.65647496 30.8651078,8.64625769 C30.9548806,8.2261999 31.0724664,7.61352315 31.0859066,7.23059862 C30.6103808,6.96260669 30.0680464,7.44670509 30.0680464,7.44670509 L30.5776012,8.6654721 L30.5776012,8.6654721 C30.2916541,8.73738941 30.0680464,8.93698602 30.0680464,8.93698602 L30.487061,9.93919649 C30.2412155,10.0386903 30.071645,10.1731171 30.071645,10.1731171 L30.7449311,11.5946721 L30.7449311,11.5946721 C30.6043344,11.7092799 30.5208636,11.8101947 30.5208636,11.8101947 L31.2966553,12.8259377 C31.1842885,12.923476 31.1189912,13.0024194 31.1189912,13.0024194 L31.9182207,14.0488497 L31.9182207,14.0488497 C31.6977409,14.2680366 31.5753805,14.4810854 31.5753805,14.4810854 L32.894693,15.5373274 C32.6581535,15.7901721 32.5338363,16.0466654 32.5338363,16.0466654 L33.8779366,16.9768976 C33.7384269,17.2147051 33.6777999,17.4151962 33.6777999,17.4151962 L35.0101857,18.0566869 C34.8980999,18.2979304 34.8572065,18.4936324 34.8572065,18.4936324 L36.3644266,19.0639575 L36.3644266,19.0639575 C36.2572747,19.3928053 36.2535526,19.6778595 36.2535526,19.6778595 L37.5819142,19.9066918 C37.5396709,20.1726971 37.554839,20.375499 37.554839,20.375499 L39.0226745,20.4987241 L39.0226745,20.4987241 C38.9431664,20.8063594 38.948751,21.0598424 38.948751,21.0598424 L40.2423835,21.2366774 C40.158315,21.4848589 40.1385871,21.6799782 40.1385871,21.6799782 L41.569132,22.0566401 L41.569132,22.0566401 C41.3830124,22.4056506 41.3362341,22.7478813 41.3362341,22.7478813 L41.6492652,22.8420483 Z" sketch:type="MSShapeGroup"/>
    </g>
  </g>
</svg>